# xmcd
#
# Track frame offsets:
#	150
#	17155
#	33597
#	48467
#	62547
#	79482
#	93557
#	106505
#	120475
#	131927
#	148252
#	163547
#	182395
#	198432
#
# Disc length: 2838
#
# Revision: 3
# Processed by: cddbd v1.5.1PL0 Copyright (c) Steve Scherf et al.
# Submitted via: audiograbber 1.83.01
# Normalized: r2:DSETVAR1
#
DISCID=bf0b140e
DTITLE=Various Artist - Mr Music Country  1996-01
DYEAR=1996
DGENRE=Country
TTITLE0=Ray Willie - Just To Hold You
TTITLE1=Confederate Railroad - Bill's Laundromat, Bar and Grill
TTITLE2=Randy Travis - The Box
TTITLE3=Faith Hill - Let's Go To Vegas
TTITLE4=Neal McCoy - Y-o-u
TTITLE5=John Michael Montgomery - Dream On Texas Ladies
TTITLE6=Archer and Park - Where There's Smoke
TTITLE7=Maria Rose - Weeping Willow
TTITLE8=Dale Watson - Nashville Rash
TTITLE9=Emmylou Harris - The Sweetheart Of The Rodeo
TTITLE10=Billy Mata - If This Was Texas
TTITLE11=Red Steagall - Rider On The Rim
TTITLE12=Dwight Yoakam - This Much I Know
TTITLE13=Montana Rose and Claudia Appling-Williams - Hillbilly With A Record Deal
EXTD=
EXTT0=
EXTT1=
EXTT2=
EXTT3=
EXTT4=
EXTT5=
EXTT6=
EXTT7=
EXTT8=
EXTT9=
EXTT10=
EXTT11=
EXTT12=
EXTT13=
PLAYORDER=
